<?xml version="1.0" encoding="UTF-8"?>
<svg xmlns="http://www.w3.org/2000/svg" xmlns:xlink="http://www.w3.org/1999/xlink" width="22px" height="24px" viewBox="0 0 22 24" version="1.1">
<g id="surface1">
<path style=" stroke:none;fill-rule:nonzero;fill:rgb(100%,100%,100%);fill-opacity:1;" d="M 21.390625 9.839844 C 19.285156 9.84375 17.234375 9.199219 15.527344 7.996094 L 15.527344 16.378906 C 15.523438 19.558594 13.515625 22.402344 10.484375 23.515625 C 7.449219 24.628906 4.03125 23.777344 1.90625 21.378906 C -0.21875 18.980469 -0.605469 15.539062 0.9375 12.746094 C 2.480469 9.949219 5.625 8.386719 8.832031 8.828125 L 8.832031 13.039062 C 7.363281 12.585938 5.765625 13.109375 4.867188 14.339844 C 3.972656 15.570312 3.980469 17.222656 4.890625 18.445312 C 5.800781 19.664062 7.40625 20.167969 8.871094 19.699219 C 10.332031 19.230469 11.324219 17.890625 11.324219 16.378906 L 11.324219 0 L 15.527344 0 C 15.523438 0.347656 15.554688 0.695312 15.617188 1.039062 C 15.910156 2.585938 16.84375 3.945312 18.191406 4.800781 C 19.140625 5.414062 20.25 5.742188 21.390625 5.742188 Z M 21.390625 9.839844 "/>
</g>
</svg>
